<?xml version="1.0" encoding="UTF-8" standalone="no"?>
<!-- Generator: Adobe Illustrator 20.1.0, SVG Export Plug-In . SVG Version: 6.00 Build 0)  -->

<svg
   xmlns:dc="http://purl.org/dc/elements/1.1/"
   xmlns:cc="http://creativecommons.org/ns#"
   xmlns:rdf="http://www.w3.org/1999/02/22-rdf-syntax-ns#"
   xmlns:svg="http://www.w3.org/2000/svg"
   xmlns="http://www.w3.org/2000/svg"
   xmlns:sodipodi="http://sodipodi.sourceforge.net/DTD/sodipodi-0.dtd"
   xmlns:inkscape="http://www.inkscape.org/namespaces/inkscape"
   version="1.1"
   id="Metro_de_Bilbao"
   x="0px"
   y="0px"
   viewBox="0 0 23.200001 15"
   xml:space="preserve"
   sodipodi:docname="metrobilbao_logo.svg"
   width="23.200001"
   height="15"
   inkscape:version="0.92.3 (2405546, 2018-03-11)"><metadata
   id="metadata17"><rdf:RDF><cc:Work
       rdf:about=""><dc:format>image/svg+xml</dc:format><dc:type
         rdf:resource="http://purl.org/dc/dcmitype/StillImage" /><dc:title></dc:title></cc:Work></rdf:RDF></metadata><defs
   id="defs15" /><sodipodi:namedview
   pagecolor="#ffffff"
   bordercolor="#666666"
   borderopacity="1"
   objecttolerance="10"
   gridtolerance="10"
   guidetolerance="10"
   inkscape:pageopacity="0"
   inkscape:pageshadow="2"
   inkscape:window-width="2560"
   inkscape:window-height="1015"
   id="namedview13"
   showgrid="false"
   inkscape:zoom="45.254834"
   inkscape:cx="24.964399"
   inkscape:cy="7.7618252"
   inkscape:window-x="0"
   inkscape:window-y="36"
   inkscape:window-maximized="1"
   inkscape:current-layer="Metro_de_Bilbao" />
<style
   type="text/css"
   id="style2">
	.st0{fill:#f1592a;}
</style>
<g
   id="g10"
   transform="matrix(0.1135017,0,0,0.1135017,-1.5640013,-1.6866356)">
	<path
   class="st0"
   d="m 78.1,16.6 v 0 c -35.4,0 -64.3,28.9 -64.3,64.3 0,35.4 28.9,64.3 64.3,64.3 35.4,0 64.3,-28.9 64.3,-64.3 -0.1,-35.4 -29,-64.3 -64.3,-64.3 m 0,122.9 v 0 c -31.9,0 -57.9,-26.3 -57.9,-58.6 0,-32.3 26,-58.6 57.9,-58.6 v 0 c 31.8,0 57.8,26.3 57.8,58.6 0,32.3 -26,58.6 -57.8,58.6"
   id="path4"
   inkscape:connector-curvature="0"
   style="fill:#f1592a" />
	<path
   class="st0"
   d="m 113.4,132.9 c -2.1,0 -5,3.1 -6.1,3.1 -26.3,-2.3 -47,-26.7 -47,-55.2 0,-28.6 20.9,-52.2 47.5,-55.1 1.8,-0.2 3.7,3.4 5.6,3.5 h 0.1 c 2.2,0 4.3,-3.7 6.4,-3.4 26.2,3.3 46.5,26.7 46.5,55 0,28.4 -20.7,52.9 -46.9,55.2 -1.1,0.1 -4,-3.1 -6.1,-3.1 m 0,-117.9 c -36.3,0 -65.9,29.6 -65.9,65.9 0,36.3 29.6,65.9 65.9,65.9 36.2,0 65.9,-29.6 65.9,-65.9 C 179.3,44.6 149.7,15 113.4,15 Z"
   id="path6"
   inkscape:connector-curvature="0"
   style="fill:#f1592a" />
	<path
   class="st0"
   d="m 152,32.4 c 25.8,0 46.9,21.8 46.9,48.5 0,26.6 -21.1,48.4 -46.9,48.4 -25.9,0 -47,-21.8 -47,-48.4 0,-26.7 21.2,-48.5 47,-48.5 z m 0,114.7 c 36.5,0 66.2,-29.7 66.2,-66.2 0,-36.5 -29.7,-66.2 -66.2,-66.2 v 0 c -36.5,0 -66.2,29.7 -66.2,66.2 0,36.5 29.7,66.2 66.2,66.2"
   id="path8"
   inkscape:connector-curvature="0"
   style="fill:#f1592a" />
</g>
</svg>